<svg width="23px" height="17px" viewBox="0 0 23 17" version="1.1" xmlns="http://www.w3.org/2000/svg" xmlns:xlink="http://www.w3.org/1999/xlink">
    <!-- Generator: Sketch 43.2 (39069) - http://www.bohemiancoding.com/sketch -->
    <desc>Created with Sketch.</desc>
    <defs></defs>
    <g id="Submission" stroke="none" stroke-width="1" fill="none" fill-rule="evenodd">
        <g id="Artboard" transform="translate(-2441.000000, -116.000000)" fill="#000000">
            <g id="camera-copy-4" transform="translate(2441.000000, 116.000000)">
                <path d="M5.76839033,2.70885212 L1.25214504,2.70885212 C0.560751215,2.70885212 1.63428098e-15,3.26662072 0,3.95448919 L0,15.7543629 C0,16.4422314 0.560291206,17 1.25214504,17 L21.747855,17 C22.4397088,17 23,16.4422314 23,15.7543629 L23,3.95448919 C23,3.26615937 22.4397088,2.70885212 21.747855,2.70885212 L16.7391484,2.70885212 C16.3548375,2.34756093 15.9049276,1.79626441 15.4903579,0.967397271 C14.9714675,-0.0701722671 13.5127784,0.0276333096 13.5127784,0.0276333096 L8.92556661,0.0276333096 C8.92556661,0.0276333096 7.72126252,-0.250097621 6.99674803,0.955402247 C6.55454701,1.69151909 6.15002374,2.29271657 5.76839033,2.70885212 Z" id="Path-Copy-3"></path>
                <path d="M2.78850446,2.33237275 L2.78850446,1.7910774 C2.78850446,1.64158826 2.95751561,1.52022879 3.16599976,1.52022879 L4.87445783,1.52022879 C5.08294198,1.52022879 5.25195313,1.64158826 5.25195313,1.7910774 L5.25195313,2.33237275 L2.78850446,2.33237275 L2.78850446,2.33237275 Z" id="Shape-Copy-11"></path>
                <path d="M11,6 C13.2090765,6 15,7.79104478 15,10 C15,12.2089552 13.2095281,14 11,14 C8.79092346,14 7,12.2089552 7,10 C7,7.79059249 8.79092346,6 11,6 L11,6 Z" id="Shape-Copy-16" stroke="#FFFFFF" stroke-width="2"></path>
                <path d="M20,5.99968662 C20,6.55249138 19.552378,7 18.9996892,7 C18.447622,7 18,6.55249138 18,5.99968662 C18,5.44813538 18.447622,5 18.9996892,5 C19.552378,5 20,5.44750862 20,5.99968662 Z" id="Shape-Copy-14" stroke="#FFFFFF" stroke-width="0.5"></path>
            </g>
        </g>
    </g>
</svg>