<?xml version="1.0" encoding="utf-8"?>
<!-- Generator: Adobe Illustrator 14.0.0, SVG Export Plug-In . SVG Version: 6.00 Build 43363)  -->
<!DOCTYPE svg PUBLIC "-//W3C//DTD SVG 1.1//EN" "http://www.w3.org/Graphics/SVG/1.1/DTD/svg11.dtd">
<svg version="1.1" xmlns="http://www.w3.org/2000/svg" xmlns:xlink="http://www.w3.org/1999/xlink" x="0px" y="0px"
	 width="32px" height="32px" viewBox="0 0 32 32" enable-background="new 0 0 32 32" xml:space="preserve">
<rect x="15" y="12" fill="#010101" width="2" height="8"/>
<rect x="12" y="15" fill="#010101" width="8" height="2"/>
<g>
	<path fill="#010101" d="M16,8.79c3.965,0,7.21,3.244,7.21,7.21c0,3.965-3.245,7.21-7.21,7.21c-3.966,0-7.21-3.245-7.21-7.21
		C8.79,12.034,12.034,8.79,16,8.79 M16,7.76c-4.532,0-8.24,3.707-8.24,8.24c0,4.532,3.708,8.239,8.24,8.239s8.239-3.707,8.239-8.239
		C24.239,11.467,20.532,7.76,16,7.76L16,7.76z"/>
</g>
</svg>
