<svg width="128px" height="119px" viewBox="229 397 128 119" version="1.1" xmlns="http://www.w3.org/2000/svg" xmlns:xlink="http://www.w3.org/1999/xlink">
  <!-- Generator: Sketch 42 (36781) - http://www.bohemiancoding.com/sketch -->
  <desc>Created with Sketch.</desc>
  <defs>
    <path d="M113.590023,107.304255 C121.440705,103.74552 126.901458,95.8407104 126.901458,86.6574764 C126.901458,74.1440977 116.756942,64 104.244612,64 L89.6568463,64 C77.1438156,64 67,74.1413464 67,86.6574764 C67,99.1708551 77.1445164,109.314953 89.6568463,109.314953 L104.081855,109.314953 L113.590023,118.755568 L113.590023,107.304255 Z" id="path-1"></path>
    <mask id="mask-2" maskContentUnits="userSpaceOnUse" maskUnits="objectBoundingBox" x="0" y="0" width="59.901458" height="54.755568" fill="white">
      <use xlink:href="#path-1"></use>
    </mask>
    <path d="M32.2976745,66.5129187 C32.6171042,66.5219865 32.9376614,66.526551 33.2592849,66.526551 L54.097008,66.526551 C72.4632457,66.526551 87.3562929,51.6340753 87.3562929,33.2632755 C87.3562929,14.8884365 72.4656039,1.7748954e-14 54.097008,1.32499455e-14 L33.2592849,8.14617536e-15 C14.8930473,3.64774453e-15 -3.64760454e-15,14.8924757 -8.14715278e-15,33.2632755 C-1.13964502e-14,46.529539 7.76184466,57.9784981 18.9904985,63.3191622 L18.9904985,79.6444625 L32.2976623,66.5129184 Z" id="path-3"></path>
    <mask id="mask-4" maskContentUnits="userSpaceOnUse" maskUnits="objectBoundingBox" x="0" y="0" width="87.3562929" height="79.6444625" fill="white">
      <use xlink:href="#path-3"></use>
    </mask>
  </defs>
  <g id="Group-11-Copy" stroke="none" stroke-width="1" fill="none" fill-rule="evenodd" transform="translate(230.000000, 397.000000)">
    <use id="Combined-Shape" stroke="#E5E5E5" mask="url(#mask-2)" stroke-width="12" xlink:href="#path-1"></use>
    <g id="Group-14" transform="translate(96.675896, 86.791973) scale(-1, 1) rotate(-360.000000) translate(-96.675896, -86.791973) translate(83.175896, 83.291973)" fill="#E5E5E5">
      <ellipse id="Oval-2" cx="3.32785878" cy="3.30421531" rx="3.32785878" ry="3.30421531"></ellipse>
      <ellipse id="Oval-2-Copy" cx="13.3278588" cy="3.30421531" rx="3.32785878" ry="3.30421531"></ellipse>
      <ellipse id="Oval-2-Copy-2" cx="23.3278588" cy="3.30421531" rx="3.32785878" ry="3.30421531"></ellipse>
    </g>
    <use id="Combined-Shape" stroke="#E5E5E5" mask="url(#mask-4)" stroke-width="12" xlink:href="#path-3"></use>
    <path d="M50.2173874,29.5646648 C50.2173874,30.1405155 50.1395816,30.6683706 49.9839677,31.1482462 C49.8283538,31.6281218 49.6192508,32.0743993 49.3566524,32.4870923 C49.094054,32.8997853 48.7828309,33.298076 48.4229739,33.6819765 C48.0631168,34.0658769 47.6789508,34.4401742 47.2704644,34.8048797 C46.9592366,35.092805 46.6869164,35.3567326 46.4534956,35.5966704 C46.2200748,35.8366081 46.0255604,36.0861397 45.8699465,36.3452725 C45.7143326,36.6044053 45.597624,36.897125 45.519817,37.2234404 C45.4420101,37.5497557 45.4031072,37.9336504 45.4031072,38.3751359 L45.4031072,39.3540772 L41.5225056,39.3540772 L41.5225056,38.5190979 C41.5225056,37.5401518 41.6392143,36.7051808 41.8726351,36.01416 C42.1060559,35.3231392 42.4026904,34.7281024 42.7625475,34.2290319 C43.1224046,33.7299613 43.5114334,33.3028785 43.9296457,32.9477705 C44.347858,32.5926626 44.7368868,32.2471574 45.0967439,31.9112445 C45.456601,31.5753316 45.7532355,31.2250277 45.9866563,30.8603223 C46.2200771,30.4956169 46.3367858,30.0637354 46.3367858,29.5646648 C46.3367858,28.7200838 46.0936427,28.0530668 45.6073494,27.5635937 C45.121056,27.0741207 44.4499813,26.8293878 43.594105,26.8293878 C43.1078116,26.8293878 42.7041942,26.8965694 42.3832406,27.0309345 C42.0622869,27.1652997 41.7996925,27.357247 41.5954493,27.6067823 C41.391206,27.8563176 41.2355945,28.153836 41.12861,28.4993464 C41.0216254,28.8448568 40.9389568,29.2287515 40.8806016,29.651042 L37,29.651042 C37.1167104,28.2306103 37.5106021,26.9685565 38.181687,25.8648427 C38.8527718,24.761129 39.8885611,23.9597488 41.289086,23.4606782 C42.0671553,23.1535579 42.8743902,23 43.7108148,23 C44.6639498,23 45.5392647,23.1679539 46.3367858,23.5038668 C47.1343069,23.8397797 47.8199702,24.3004533 48.3937964,24.8859015 C48.9676226,25.4713497 49.4150057,26.1671588 49.7359594,26.9733497 C50.056913,27.7795407 50.2173874,28.6433037 50.2173874,29.5646648 L50.2173874,29.5646648 Z M41.5225056,44.738254 L41.5225056,40.9088662 L45.4031072,40.9088662 L45.4031072,44.738254 L41.5225056,44.738254 Z" id="?" fill="#FFFFFF" transform="translate(43.608694, 33.869127) rotate(-360.000000) translate(-43.608694, -33.869127) "></path>
  </g>
</svg>
