<?xml version="1.0" encoding="UTF-8"?>
<svg width="107px" height="100px" viewBox="0 0 107 100" version="1.1" xmlns="http://www.w3.org/2000/svg" xmlns:xlink="http://www.w3.org/1999/xlink">
    <!-- Generator: Sketch 43.2 (39069) - http://www.bohemiancoding.com/sketch -->
    <title>connect</title>
    <desc>Created with Sketch.</desc>
    <defs></defs>
    <g id="Submission" stroke="none" stroke-width="1" fill="none" fill-rule="evenodd">
        <g id="Desktop-HD-Copy-39" transform="translate(-1080.000000, -424.000000)">
            <g id="connect" transform="translate(1080.000000, 424.000000)">
                <path d="M92.4538008,92.5883129 L89.577488,89.7324355 L88.700124,88.8613049 L87.4637437,88.8613049 L75.3329183,88.8613049 C66.4828116,88.8613049 59.302521,81.6786308 59.302521,72.8214087 C59.302521,63.9610264 66.479055,56.7815126 75.3329183,56.7815126 L87.6094833,56.7815126 C96.4595901,56.7815126 103.639881,63.9641867 103.639881,72.8214087 C103.639881,79.1838547 99.9067836,84.8625292 94.2155579,87.4414956 L92.4538008,88.239832 L92.4538008,90.1740319 L92.4538008,92.5883129 Z" id="Combined-Shape" stroke="#E5E5E5" stroke-width="6"></path>
                <g id="Group-14" transform="translate(81.240249, 72.934431) scale(-1, 1) rotate(-360.000000) translate(-81.240249, -72.934431) translate(69.895711, 69.993255)" fill="#E5E5E5">
                    <ellipse id="Oval-2" cx="2.79651998" cy="2.77665152" rx="2.79651998" ry="2.77665152"></ellipse>
                    <ellipse id="Oval-2-Copy" cx="11.1998813" cy="2.77665152" rx="2.79651998" ry="2.77665152"></ellipse>
                    <ellipse id="Oval-2-Copy-2" cx="19.6032427" cy="2.77665152" rx="2.79651998" ry="2.77665152"></ellipse>
                </g>
                <path d="M18.9584021,59.7529741 L18.9584021,53.2058237 L18.9584021,51.3109037 L17.2472745,50.4968003 C8.61491143,46.3897798 3,37.6798127 3,27.9523324 C3,14.1703691 14.173191,3 27.9620751,3 L45.4465744,3 C59.2342109,3 70.4086495,14.1696081 70.4086495,27.9523324 C70.4086495,41.7342956 59.2354585,52.9046647 45.4465744,52.9046647 L27.9620751,52.9046647 C27.7167893,52.9046647 27.471964,52.9011384 27.2276447,52.8940996 L25.9464123,52.8571874 L25.0340679,53.7574912 L18.9584021,59.7529741 Z" id="Combined-Shape" stroke="#E5E5E5" stroke-width="6"></path>
                <path d="M42.1994852,24.8442561 C42.1994852,25.3281642 42.1341022,25.77174 42.0033342,26.1749968 C41.8725663,26.5782536 41.6968494,26.9532767 41.4761785,27.3000776 C41.2555076,27.6468784 40.9939756,27.9815765 40.6915747,28.3041819 C40.3891738,28.6267873 40.0663452,28.9413229 39.7230793,29.247798 C39.4615434,29.4897521 39.2327029,29.71154 39.0365509,29.9131684 C38.840399,30.1147968 38.6769415,30.3244871 38.5461735,30.5422458 C38.4154056,30.7600044 38.3173311,31.0059874 38.2519471,31.280202 C38.1865631,31.5544166 38.1538716,31.8770172 38.1538716,32.2480134 L38.1538716,33.0706531 L34.8928619,33.0706531 L34.8928619,32.3689898 C34.8928619,31.546346 34.9909364,30.8446898 35.1870883,30.264 C35.3832402,29.6833103 35.6325129,29.1832794 35.9349138,28.7638923 C36.2373148,28.3445053 36.5642298,27.9856121 36.9156687,27.6872021 C37.2671075,27.3887921 37.5940225,27.0984516 37.8964235,26.8161719 C38.1988244,26.5338921 38.4480971,26.2395191 38.644249,25.933044 C38.8404009,25.6265688 38.9384754,25.2636432 38.9384754,24.8442561 C38.9384754,24.1345242 38.7341536,23.5740057 38.3255037,23.1626838 C37.9168538,22.7513619 37.3529254,22.545704 36.6337016,22.545704 C36.2250518,22.545704 35.8858775,22.6021591 35.6161685,22.715071 C35.3464596,22.8279829 35.125792,22.9892832 34.954159,23.1989767 C34.7825261,23.4086702 34.6517601,23.6586857 34.5618571,23.9490306 C34.4719541,24.2393754 34.4024847,24.561976 34.3534467,24.916842 L31.092437,24.916842 C31.1905129,23.7232019 31.5215144,22.6626525 32.0854512,21.735162 C32.6493881,20.8076714 33.5197992,20.1342427 34.6967109,19.7148557 C35.3505507,19.4567713 36.0288993,19.3277311 36.7317771,19.3277311 C37.5327309,19.3277311 38.2682896,19.4688688 38.9384754,19.7511486 C39.6086612,20.0334283 40.1848489,20.420549 40.6670558,20.9125223 C41.1492627,21.4044955 41.5252149,21.9892091 41.7949238,22.6666805 C42.0646327,23.3441518 42.1994852,24.0700031 42.1994852,24.8442561 L42.1994852,24.8442561 Z M34.8928619,37.5951714 L34.8928619,34.3771985 L38.1538716,34.3771985 L38.1538716,37.5951714 L34.8928619,37.5951714 Z" id="?" fill="#FFFFFF" transform="translate(36.645961, 28.461451) rotate(-360.000000) translate(-36.645961, -28.461451) "></path>
            </g>
        </g>
    </g>
</svg>