<?xml version="1.0" encoding="iso-8859-1"?>
<!-- Generator: Adobe Illustrator 17.0.2, SVG Export Plug-In . SVG Version: 6.00 Build 0)  -->
<!DOCTYPE svg PUBLIC "-//W3C//DTD SVG 1.1//EN" "http://www.w3.org/Graphics/SVG/1.1/DTD/svg11.dtd">
<svg version="1.1" id="Layer_1" xmlns="http://www.w3.org/2000/svg" xmlns:xlink="http://www.w3.org/1999/xlink" x="0px" y="0px"
	 width="32px" height="32px" viewBox="0 0 32 32" style="enable-background:new 0 0 32 32;" xml:space="preserve">
<g>
	<path style="fill:#070707;" d="M16.001,8.785c-3.984,0-7.216,3.231-7.216,7.215c0,3.984,3.232,7.215,7.216,7.215
		c3.983,0,7.214-3.23,7.214-7.215C23.215,12.016,19.984,8.785,16.001,8.785z M16.845,20.959c-0.263,0.248-0.568,0.369-0.918,0.368
		c-0.356-0.001-0.664-0.127-0.924-0.376c-0.262-0.25-0.391-0.547-0.39-0.893c0-0.346,0.134-0.643,0.398-0.896
		c0.262-0.25,0.57-0.375,0.925-0.374c0.352,0.001,0.657,0.129,0.918,0.382c0.258,0.255,0.389,0.555,0.387,0.901
		C17.239,20.416,17.108,20.713,16.845,20.959z M17.186,13.268c-0.066,0.307-0.153,0.666-0.255,1.08
		c-0.097,0.392-0.207,0.879-0.334,1.463c-0.123,0.584-0.256,1.307-0.396,2.166l-0.525-0.002c-0.133-0.87-0.261-1.594-0.381-2.173
		c-0.119-0.579-0.227-1.062-0.32-1.456c-0.084-0.358-0.165-0.711-0.234-1.055c-0.073-0.344-0.108-0.602-0.106-0.775
		c0-0.35,0.133-0.648,0.393-0.894c0.259-0.248,0.572-0.371,0.936-0.369c0.359,0.002,0.672,0.127,0.936,0.377
		c0.262,0.248,0.393,0.549,0.391,0.898C17.288,12.714,17.253,12.961,17.186,13.268z"/>
</g>
</svg>
