<?xml version="1.0" encoding="iso-8859-1"?>
<!-- Generator: Adobe Illustrator 17.0.2, SVG Export Plug-In . SVG Version: 6.00 Build 0)  -->
<!DOCTYPE svg PUBLIC "-//W3C//DTD SVG 1.1//EN" "http://www.w3.org/Graphics/SVG/1.1/DTD/svg11.dtd">
<svg version="1.1" id="Layer_1" xmlns="http://www.w3.org/2000/svg" xmlns:xlink="http://www.w3.org/1999/xlink" x="0px" y="0px"
	 width="32px" height="32px" viewBox="0 0 32 32" style="enable-background:new 0 0 32 32;" xml:space="preserve">
<g>
	<path d="M16.001,24.655l-8.282-8.434c-0.887-1.017-1.353-2.26-1.353-3.546c0-2.939,2.392-5.33,5.332-5.33
		c1.422,0,2.76,0.554,3.767,1.558l0.526,0.532l0.555-0.54c0.996-0.996,2.334-1.55,3.758-1.55c2.939,0,5.331,2.391,5.331,5.33
		c0,1.286-0.465,2.529-1.311,3.501L16.001,24.655z M11.698,9.398c-1.808,0-3.279,1.47-3.279,3.277c0,0.791,0.287,1.556,0.807,2.153
		l6.775,6.896l6.816-6.942c0.478-0.552,0.765-1.317,0.765-2.108c0-1.807-1.471-3.277-3.278-3.277c-0.876,0-1.698,0.34-2.316,0.958
		L16,12.327l-1.991-1.975C13.395,9.738,12.572,9.398,11.698,9.398z"/>
</g>
</svg>
