<?xml version="1.0" encoding="UTF-8"?>
<svg width="7px" height="16px" viewBox="0 0 7 16" version="1.1" xmlns="http://www.w3.org/2000/svg" xmlns:xlink="http://www.w3.org/1999/xlink">
    <!-- Generator: Sketch 45.2 (43514) - http://www.bohemiancoding.com/sketch -->
    <title>Combined Shape</title>
    <desc>Created with Sketch.</desc>
    <defs></defs>
    <g id="QA-sale-page-mobile-web" stroke="none" stroke-width="1" fill="none" fill-rule="evenodd">
        <g id="iPhone-6-Copy-12" transform="translate(-331.000000, -316.000000)" fill="#000000">
            <g id="Oval-198-Copy-2-+-Path-+-Path" transform="translate(314.000000, 304.000000)">
                <g id="Path-+-Path" transform="translate(17.000000, 12.000000)">
                    <path d="M1.95647036,16 C0.936182785,16 0.326767776,15.4268615 0.326767776,14.4692836 C0.326767776,13.5384615 0.823123892,12.1161767 1.24089029,11.0895969 L2.76029151,7.18324239 C2.80303329,7.06917796 2.79476069,7.00580884 2.78786685,6.99454321 C2.49281071,7.01144165 1.93854639,7.68033797 1.5704156,8.12251364 C1.14575537,8.63228305 0.890683474,8.94208766 0.588733504,8.94208766 C0.279889699,8.94208766 0,8.65481429 0,8.34078507 C0,7.92677346 0.479810912,7.35785953 1.25467796,6.57771519 L1.32913138,6.50167224 C2.07366555,5.77785601 3.2745716,4.92307692 4.80500295,4.92307692 C5.44888714,4.92307692 5.96592476,5.15965499 6.26098089,5.59338145 C6.64289935,6.15243795 6.63600552,6.9889104 6.24305692,8.07322654 L4.62438448,12.5330048 C4.50581052,12.8315437 4.32657081,13.2821686 4.32657081,13.5356451 C4.53200709,13.5356451 5.18140634,12.7907059 5.49300768,12.4316142 C5.97695489,11.8739659 6.18514871,11.6486534 6.43332677,11.6486534 C6.70218633,11.6486534 7,11.9133955 7,12.2922021 C7,13.1723288 4.26038999,16 1.95647036,16 Z M5.10364989,3.69230769 C4.14493267,3.69230769 3.5,3.00066504 3.5,1.97251164 C3.5,0.904455775 4.35949681,0 5.37650602,0 C6.33274274,0 7,0.706273554 7,1.71979605 C7,2.82509421 6.1677888,3.69230769 5.10364989,3.69230769 Z" id="Combined-Shape"></path>
                </g>
            </g>
        </g>
    </g>
</svg>