<?xml version="1.0" encoding="utf-8"?>
<!-- Generator: Adobe Illustrator 17.1.0, SVG Export Plug-In . SVG Version: 6.00 Build 0)  -->
<!DOCTYPE svg PUBLIC "-//W3C//DTD SVG 1.1//EN" "http://www.w3.org/Graphics/SVG/1.1/DTD/svg11.dtd">
<svg version="1.1" xmlns="http://www.w3.org/2000/svg" xmlns:xlink="http://www.w3.org/1999/xlink" x="0px" y="0px"
	 viewBox="0 0 98.729 98.729" enable-background="new 0 0 98.729 98.729" xml:space="preserve">
<path fill-rule="evenodd" clip-rule="evenodd" d="M12.672,0h73.385c6.969,0,12.672,5.702,12.672,12.672v73.385
	c0,6.97-5.702,12.672-12.672,12.672H12.672C5.702,98.729,0,93.027,0,86.057V12.672C0,5.702,5.702,0,12.672,0L12.672,0z
	 M71.92,10.969c-2.445,0-4.445,2-4.445,4.445v10.639c0,2.445,2,4.445,4.445,4.445h11.159c2.445,0,4.444-2,4.444-4.445V15.414
	c0-2.445-2-4.445-4.444-4.445H71.92L71.92,10.969z M87.57,41.751h-8.69c0.822,2.685,1.266,5.528,1.266,8.471
	c0,16.422-13.74,29.734-30.688,29.734c-16.948,0-30.687-13.312-30.687-29.734c0-2.944,0.444-5.786,1.266-8.471H10.97v41.705
	c0,2.159,1.766,3.924,3.925,3.924h68.751c2.159,0,3.925-1.766,3.925-3.924V41.751L87.57,41.751z M49.458,29.938
	c-10.951,0-19.828,8.602-19.828,19.212c0,10.611,8.878,19.213,19.828,19.213c10.951,0,19.828-8.602,19.828-19.213
	C69.287,38.54,60.409,29.938,49.458,29.938z"/>
</svg>
