<?xml version="1.0" encoding="iso-8859-1"?>
<!-- Generator: Adobe Illustrator 17.0.2, SVG Export Plug-In . SVG Version: 6.00 Build 0)  -->
<!DOCTYPE svg PUBLIC "-//W3C//DTD SVG 1.1//EN" "http://www.w3.org/Graphics/SVG/1.1/DTD/svg11.dtd">
<svg version="1.1" xmlns="http://www.w3.org/2000/svg" xmlns:xlink="http://www.w3.org/1999/xlink" x="0px" y="0px" width="129px"
	 height="44px" viewBox="0 0 129 44" style="enable-background:new 0 0 129 44;" xml:space="preserve">
<g id="Layer_1">
	<path d="M4,4h121v36H75v-6h-4v6H4V4z M0,44h129V0H0V44z"/>
	<path d="M26.259,14h-3.304l-5.746,15h3.304l1.507-4.206h5.193L28.701,29h3.305L26.259,14z M22.91,22l1.697-4.546L26.283,22H22.91z"
		/>
	<polygon points="55,14 55,17 60.284,17 60.284,29 63.702,29 63.703,17 69,17 69,14 	"/>
	<polygon points="108.017,14 104.277,20.414 100.559,14 96.942,14 102.732,23.466 102.732,29 105.844,29 105.844,23.466 111.633,14 
			"/>
	<path d="M90.629,21.107c-0.962-0.703-2.279-1.025-3.442-1.31c-0.242-0.059-0.478-0.116-0.707-0.177l-0.142-0.037
		c-0.949-0.237-2.245-0.565-2.245-1.695c0-1.21,1.409-1.532,2.241-1.532c0.943,0,2.129,0.282,2.419,1.631L88.763,18h2.93
		l-0.001-0.025c-0.099-2.728-2.013-4.293-5.248-4.293c-2.411,0-5.223,1.125-5.223,4.293c0,3.3,2.934,4.005,5.525,4.629
		c0.238,0.058,0.474,0.114,0.7,0.171c1.319,0.345,1.99,0.957,1.99,1.82c0,1.859-2.437,1.952-2.926,1.952
		c-1.711,0-2.643-0.64-2.928-2.007l-0.008-0.044h-2.977l0.004,0.056c0.021,1.172,0.163,1.885,0.918,2.773
		c1.43,1.667,3.699,1.918,4.924,1.918c2.825,0,5.866-1.468,5.866-4.691C92.309,23.181,91.666,21.862,90.629,21.107"/>
	<path d="M47.794,22.606c1.129-0.826,1.831-2.283,1.831-3.807c0-1.647-0.848-3.177-2.213-3.989C46.254,14.112,45.085,14,43.954,14
		h-6.666v15h3.133v-7.414L46.234,29h3.794l-4.426-5.531C46.395,23.331,47.054,23.145,47.794,22.606 M40.42,21.01v-4.018l3.519-0.001
		c0.7,0,1.319,0.029,1.82,0.391c0.472,0.345,0.753,0.95,0.753,1.619c0,1.333-0.951,2.008-2.829,2.008H40.42V21.01z"/>
</g>
<g id="Layer_2">
</g>
</svg>
