<?xml version="1.0" encoding="UTF-8"?>
<svg width="116px" height="68px" viewBox="0 0 116 68" version="1.1" xmlns="http://www.w3.org/2000/svg" xmlns:xlink="http://www.w3.org/1999/xlink">
    <defs></defs>
    <g id="Spec" stroke="none" stroke-width="1" fill="none" fill-rule="evenodd">
        <g id="payoff-copy" transform="translate(-1088.000000, -355.000000)">
            <g id="Group-3" transform="translate(1088.000000, 355.000000)">
                <polygon id="Rectangle-19" fill="#E5E5E5" points="32 0 93.5100226 12.4203451 116 23.3868164 116 59 32 59"></polygon>
                <rect id="Rectangle-19" fill="#E5E5E5" x="32" y="0" width="61" height="35"></rect>
                <rect id="Rectangle-4" fill="#F8F8F8" x="32" y="34" width="61" height="3"></rect>
                <rect id="Rectangle-4" fill="#F8F8F8" transform="translate(94.000000, 25.500000) rotate(-270.000000) translate(-94.000000, -25.500000) " x="82" y="24" width="24" height="3"></rect>
                <polyline id="Path-3" stroke="#FFFFFF" stroke-width="3" points="56 16.7122361 60.8852415 21 70 13"></polyline>
                <circle id="Oval" fill="#E5E5E5" cx="55" cy="58" r="10"></circle>
                <path d="M65,59 C65,53.4771525 60.5228475,49 55,49 C49.4771525,49 45,53.4771525 45,59" id="Oval" stroke="#F8F8F8" stroke-width="3" fill="#E5E5E5"></path>
                <circle id="Oval-Copy" fill="#E5E5E5" cx="91" cy="58" r="10"></circle>
                <g id="Group-4" transform="translate(0.000000, 29.000000)" fill="#E5E5E5">
                    <rect id="Rectangle-20" x="0" y="0" width="29" height="6.74074074"></rect>
                    <rect id="Rectangle-20-Copy" x="8.7" y="9.62962963" width="20.3" height="6.74074074"></rect>
                    <rect id="Rectangle-20-Copy" x="15.4666667" y="19.2592593" width="13.5333333" height="6.74074074"></rect>
                </g>
                <path d="M101,59 C101,53.4771525 96.5228475,49 91,49 C85.4771525,49 81,53.4771525 81,59" id="Oval-Copy-2" stroke="#F8F8F8" stroke-width="3" fill="#E5E5E5"></path>
            </g>
        </g>
    </g>
</svg>