<svg xmlns="http://www.w3.org/2000/svg" viewBox="0 0 316.47 297.05"><path d="M1233.59,334.52c-0.81,0-1.62,0-2.42-.06h0c-0.51,0-1,.06-1.58.06-18.75,0-30.78-8.51-42.42-16.73-8-5.68-15.62-11-24.55-12.52a79.2,79.2,0,0,0-12.89-1.09,88.15,88.15,0,0,0-17.86,2,39.15,39.15,0,0,1-6.66,1c-1.81,0-3.77-.39-4.63-3.31-0.74-2.52-1.28-5-1.79-7.33-1.33-6.09-2.27-9.83-4.82-10.22-29.74-4.59-38.25-10.86-40.14-15.3a5.72,5.72,0,0,1-.46-1.9,3.35,3.35,0,0,1,2.8-3.49c45.71-7.53,66.21-54.25,67.06-56.23l0.07-.16c2.8-5.67,3.35-10.59,1.63-14.62-3.14-7.39-13.37-10.64-20.14-12.79-1.66-.52-3.23-1-4.47-1.51-13.51-5.34-14.64-10.83-14.11-13.62,0.91-4.76,7.27-8.08,12.42-8.08a8.7,8.7,0,0,1,3.7.74c6.08,2.85,11.56,4.29,16.28,4.29,6.53,0,9.38-2.74,9.73-3.1-0.17-3.09-.37-6.33-0.58-9.66-1.36-21.61-3-48.46,3.79-63.79,20.49-45.95,63.95-49.52,76.78-49.52l5.63-.06h0.76c12.86,0,56.41,3.58,76.91,49.55,6.84,15.34,5.15,42.21,3.78,63.81l-0.06.94c-0.19,3-.37,5.93-0.52,8.73,0.33,0.33,2.95,2.86,8.87,3.08h0c4.5-.17,9.67-1.61,15.35-4.27a11.57,11.57,0,0,1,4.77-.94,14.56,14.56,0,0,1,5.48,1l0.1,0c4.59,1.63,7.6,4.85,7.66,8.21,0.06,3.17-2.36,7.93-14.21,12.61-1.23.48-2.8,1-4.46,1.51-6.78,2.15-17,5.4-20.14,12.79-1.71,4-1.17,8.95,1.63,14.62,0,0.05.05,0.11,0.07,0.17,0.85,2,21.33,48.69,67.06,56.22a3.35,3.35,0,0,1,2.8,3.49,5.62,5.62,0,0,1-.47,1.91c-1.89,4.41-10.39,10.67-40.14,15.26-2.43.37-3.37,3.54-4.82,10.18-0.53,2.42-1.06,4.79-1.8,7.29a4,4,0,0,1-4.26,3.18H1338a37.21,37.21,0,0,1-6.66-.84,88.82,88.82,0,0,0-17.87-1.89,79.29,79.29,0,0,0-12.9,1.09c-8.92,1.49-16.5,6.84-24.52,12.51-11.66,8.25-23.69,16.75-42.45,16.75h0Z" transform="translate(-1073.35 -37.47)"/></svg>