<?xml version="1.0" encoding="iso-8859-1"?>
<!-- Generator: Adobe Illustrator 17.0.2, SVG Export Plug-In . SVG Version: 6.00 Build 0)  -->
<!DOCTYPE svg PUBLIC "-//W3C//DTD SVG 1.1//EN" "http://www.w3.org/Graphics/SVG/1.1/DTD/svg11.dtd">
<svg version="1.1" xmlns="http://www.w3.org/2000/svg" xmlns:xlink="http://www.w3.org/1999/xlink" x="0px" y="0px"
	 width="32px" height="32px" viewBox="0 0 32 32" style="enable-background:new 0 0 32 32;" xml:space="preserve">
<path d="M25.915,9.851c-0.727,0.325-1.515,0.543-2.336,0.641c0.841-0.504,1.484-1.301,1.789-2.252
	c-0.789,0.469-1.657,0.806-2.584,0.987c-0.741-0.79-1.798-1.286-2.971-1.286c-2.243,0-4.066,1.822-4.066,4.072
	c0,0.319,0.035,0.626,0.102,0.927c-3.378-0.17-6.376-1.79-8.384-4.253c-0.351,0.602-0.552,1.301-0.552,2.046
	c0,1.413,0.717,2.657,1.812,3.386c-0.666-0.019-1.293-0.203-1.842-0.508c0,0.017,0,0.032,0,0.051c0,1.971,1.399,3.616,3.263,3.988
	c-0.344,0.095-0.703,0.143-1.071,0.143c-0.262,0-0.518-0.024-0.766-0.071c0.52,1.618,2.02,2.791,3.797,2.824
	c-1.388,1.092-3.143,1.743-5.049,1.743c-0.331,0-0.656-0.02-0.971-0.058c1.801,1.153,3.939,1.827,6.236,1.827
	c7.484,0,11.575-6.199,11.575-11.575c0-0.177-0.001-0.352-0.015-0.525C24.679,11.382,25.371,10.666,25.915,9.851z"/>
</svg>
