<?xml version="1.0" encoding="utf-8"?>
<!-- Generator: Adobe Illustrator 19.1.0, SVG Export Plug-In . SVG Version: 6.00 Build 0)  -->
<svg version="1.1" id="Layer_1" xmlns="http://www.w3.org/2000/svg" xmlns:xlink="http://www.w3.org/1999/xlink" x="0px" y="0px"
     viewBox="0 0 175 175" style="enable-background:new 0 0 175 175;" xml:space="preserve">
<style type="text/css">
    .st0{fill:#F7923A;}  <!-- orange -->
    .st1{fill:#435EA9;}  <!-- darkblue -->
    .st2{fill:none;}
    .st3{fill:#FFC749;}  <!-- gold -->
    .st4{fill:#FFF200;}
    .st5{fill:#388540;}  <!-- darkgreen -->
    .st6{fill:#438C97;}  <!-- lightblue -->
    .st7{fill:#BCCC46;}  <!-- lightgreen -->
    .st8{fill:#FBE854;}  <!-- yellow -->
    .st9{fill:#F1572C;}  <!-- darkorange -->
    .st10{fill:#D73127;} <!-- red -->
    .st11{fill:#B82C83;} <!-- pink -->
    .st12{fill:#642B7F;} <!-- darkviolet -->
    .st13{fill:#6C479C;} <!-- violet -->
    .st14{fill:#DFDFDF;} <!-- black-and-white -->
    .st15{fill:#595A5B;} <!-- black-and-white -->
</style>
<g>
    <path data-value='orange' class="clickable st0" d="M64.9,172.1c14.4,3.9,29.9,4.1,45.3,0l-9.7-36.2c-8.8,2.4-17.7,2.2-25.9,0L64.9,172.1z"/>
    <path data-value='darkblue' class="clickable st1" d="M110.2,3C95.8-0.9,80.3-1.1,64.9,3l9.7,36.2c8.8-2.4,17.7-2.2,25.9,0L110.2,3z"/>
    <polygon class="st2" points="87.5,87.5 87.5,87.5 87.5,87.5  "/>
    <path data-value='gold' class="clickable st3" d="M52.2,122.9l-26.5,26.5c10.9,10.8,24.4,18.7,39.2,22.7l9.7-36.2C66.1,133.5,58.4,129.1,52.2,122.9z"/>
    <polygon class="st4" points="87.5,87.5 87.5,87.5 87.5,87.5  "/>
    <path data-value='darkgreen' class="clickable st5" d="M52.2,52.2L25.6,25.6C14.8,36.5,7,50.1,3,64.9l36.2,9.7C41.5,66.1,46,58.4,52.2,52.2z"/>
    <path data-value='lightblue' class="clickable st6" d="M74.6,39.2L64.9,3C49.5,7.1,36.2,15.1,25.6,25.6l26.5,26.5C58.2,46.2,65.8,41.6,74.6,39.2z"/>
    <polygon class="st4" points="87.5,87.5 87.5,87.5 87.5,87.5  "/>
    <path data-value='lightgreen' class="clickable st7" d="M3,64.9c-3.9,14.4-4.1,29.9,0,45.3l36.2-9.7c-2.4-8.8-2.2-17.7,0-25.9L3,64.9z"/>
    <path data-value='yellow' class="clickable st8" d="M39.2,100.5L3,110.2c4.1,15.4,12.1,28.7,22.6,39.2l26.5-26.5C46.2,116.9,41.6,109.3,39.2,100.5z"/>
    <polygon class="st4" points="87.5,87.5 87.5,87.5 87.5,87.5  "/>
    <path data-value='darkorange' class="clickable st9" d="M100.5,135.8l9.7,36.2c15.4-4.1,28.7-12.1,39.2-22.6l-26.5-26.5C116.9,128.9,109.3,133.5,100.5,135.8z"/>
    <path data-value='red' class="clickable st10" d="M135.8,100.5c-2.3,8.5-6.7,16.2-12.9,22.4l26.5,26.5c10.8-10.9,18.7-24.4,22.7-39.2L135.8,100.5z"/>
    <path data-value='pink' class="clickable st11" d="M135.8,74.6c2.4,8.8,2.2,17.7,0,25.9l36.2,9.7c3.9-14.4,4.1-29.9,0-45.3L135.8,74.6z"/>
    <path data-value='darkviolet' class="clickable st12" d="M149.4,25.6l-26.5,26.5c6,6,10.6,13.6,12.9,22.4l36.2-9.7C167.9,49.5,159.9,36.2,149.4,25.6z"/>
    <path data-value='violet' class="clickable st13" d="M122.9,52.2l26.5-26.5C138.5,14.8,125,7,110.2,3l-9.7,36.2C108.9,41.5,116.7,46,122.9,52.2z"/>
    <path data-value='black-and-white' class="clickable st14" d="M101.7,73.4c7.8,7.8,7.8,20.5,0,28.3L73.4,73.4C81.2,65.6,93.9,65.6,101.7,73.4z"/>
    <path data-value='black-and-white' class="clickable st15" d="M73.4,73.4l28.3,28.3c-7.8,7.8-20.5,7.8-28.3,0C65.6,93.9,65.6,81.2,73.4,73.4z"/>
</g>
</svg>
