<?xml version="1.0" encoding="utf-8"?>
<!-- Generator: Adobe Illustrator 18.1.0, SVG Export Plug-In . SVG Version: 6.00 Build 0)  -->
<!DOCTYPE svg PUBLIC "-//W3C//DTD SVG 1.1//EN" "http://www.w3.org/Graphics/SVG/1.1/DTD/svg11.dtd">
<svg version="1.1" xmlns="http://www.w3.org/2000/svg" xmlns:xlink="http://www.w3.org/1999/xlink" x="0px" y="0px"
	 viewBox="0 0 54 54" enable-background="new 0 0 54 54" xml:space="preserve">
<g id="Background">
</g>
<g id="Screen">
</g>
<g id="Content">
	<g>
		<polygon points="36.4,44.5 37.3,31.5 48.7,40.3 		"/>
		<polygon points="17.6,9.6 16.7,22.5 5.3,13.8 		"/>
		<path d="M41,12c-5.1-4.8-12-6.4-18.3-5.1l1.1,4.9c4.8-1,10,0.3,13.8,3.9c5.3,5,6.4,12.8,3,18.9l3.7,3.5C49.5,29.8,48.3,18.8,41,12
			z"/>
		<path d="M16.2,38.4c-5.3-5-6.4-12.8-3-18.9L9.4,16c-5.2,8.2-4,19.2,3.4,26c5.3,5,12.5,6.6,19.1,4.9l-1.1-4.9
			C25.8,43.4,20.3,42.2,16.2,38.4z"/>
	</g>
</g>
<g id="Layer_7">
</g>
<g id="Spec">
</g>
</svg>
