<?xml version="1.0" encoding="utf-8"?>
<!-- Generator: Adobe Illustrator 15.0.0, SVG Export Plug-In . SVG Version: 6.00 Build 0)  -->
<!DOCTYPE svg PUBLIC "-//W3C//DTD SVG 1.1//EN" "http://www.w3.org/Graphics/SVG/1.1/DTD/svg11.dtd">
<svg version="1.1" id="Icon" xmlns="http://www.w3.org/2000/svg" xmlns:xlink="http://www.w3.org/1999/xlink" x="0px" y="0px"
	 width="487.232px" height="395.968px" viewBox="284.464 188.976 487.232 395.968"
	 enable-background="new 284.464 188.976 487.232 395.968" xml:space="preserve">
<path fill="#FFFFFF" d="M771.696,235.824c-17.92,7.952-37.168,13.328-57.408,15.744c20.656-12.368,36.479-31.968,43.952-55.296
	c-19.296,11.456-40.688,19.776-63.488,24.256c-18.224-19.424-44.208-31.552-72.96-31.552c-55.184,0-99.936,44.736-99.936,99.952
	c0,7.824,0.88,15.456,2.575,22.784c-83.071-4.176-156.72-43.968-206.016-104.432c-8.608,14.768-13.536,31.936-13.536,50.256
	c0,34.672,17.648,65.264,44.464,83.184c-16.384-0.512-31.792-5.008-45.28-12.496c0,0.416,0,0.832,0,1.265
	c0,48.432,34.448,88.815,80.176,98c-8.4,2.304-17.216,3.504-26.336,3.504c-6.448,0-12.704-0.608-18.816-1.76
	c12.72,39.695,49.632,68.592,93.36,69.407c-34.208,26.816-77.312,42.801-124.128,42.801c-8.064,0-16.032-0.48-23.856-1.425
	c44.24,28.368,96.768,44.929,153.216,44.929c183.84,0,284.385-152.305,284.385-284.384c0-4.336-0.097-8.64-0.305-12.928
	C741.344,273.472,758.304,255.872,771.696,235.824z"/>
</svg>
