<?xml version="1.0" encoding="utf-8"?>
<!-- Generator: Adobe Illustrator 15.0.0, SVG Export Plug-In . SVG Version: 6.00 Build 0)  -->
<!DOCTYPE svg PUBLIC "-//W3C//DTD SVG 1.1//EN" "http://www.w3.org/Graphics/SVG/1.1/DTD/svg11.dtd">
<svg version="1.1" id="Icon" xmlns="http://www.w3.org/2000/svg" xmlns:xlink="http://www.w3.org/1999/xlink" x="0px" y="0px"
	 width="768px" height="768px" viewBox="128 0 768 768" enable-background="new 128 0 768 768" xml:space="preserve">
<path fill="#FFFFFF" d="M128,0v768h768V0H128z M813.634,379.312h-84.721v311.984H600.577v-309.92h-69.855V273.728h67.744
	c0-31.84,0.304-60.128,0-89.647c0-84.8,65.119-109.36,123.711-109.36c39.344,0,98.656,0,98.656,0v-0.016h0.096V181.04
	c-8.305,0.048-40.576,0-57.248,0c-2.047,0-36.992-1.904-36.992,31.584c0.256,13.664,0,60.8,0,60.8h94.607L813.634,379.312z"/>
</svg>
