<?xml version="1.0" encoding="UTF-8"?>
<svg width="22px" height="15px" viewBox="0 0 22 15" version="1.1" xmlns="http://www.w3.org/2000/svg" xmlns:xlink="http://www.w3.org/1999/xlink">
    <!-- Generator: Sketch 49.3 (51167) - http://www.bohemiancoding.com/sketch -->
    <title>Group 16</title>
    <desc>Created with Sketch.</desc>
    <defs></defs>
    <g id="Page-4" stroke="none" stroke-width="1" fill="none" fill-rule="evenodd">
        <g id="1---exact-price" transform="translate(-894.000000, -616.000000)" fill="#000000" fill-rule="nonzero">
            <g id="Group-8" transform="translate(894.000000, 592.000000)">
                <g id="Group-10" transform="translate(0.000000, 21.000000)">
                    <g id="Group-16" transform="translate(0.000000, 3.000000)">
                        <rect id="Rectangle-path" x="2.75" y="7" width="5.5" height="1"></rect>
                        <path d="M21.9962703,2.04586917 C21.9962703,0.918686474 21.1285036,0.00260620276 20.0518761,0 L1.95806962,0 C0.881442134,0.00130310138 0.00372965642,0.916080271 0,2.04586917 L0,3.48318999 L0.00372965642,5.08600469 L0.00372965642,12.956737 C0.00372965642,14.0865259 0.882685353,15 1.95806962,15 L20.0518761,15 C21.1285036,15 21.9962703,14.0813135 21.9962703,12.956737 L21.9962703,5.49908783 L22,3.07401616 L21.9962703,2.04586917 Z M0.908792948,2.53322909 L0.908792948,2.04586917 C0.912522604,1.44774563 1.38494575,0.95256711 1.95806962,0.95256711 L20.0518761,0.95256711 C20.625,0.95256711 21.0912071,1.44513943 21.0912071,2.04586917 L21.0912071,2.53322909 L21.0912071,4.08600469 L0.908792948,4.08600469 L0.908792948,2.53322909 Z M21.0912071,12.956737 C21.0912071,13.5574668 20.625,14.0500391 20.0518761,14.0513422 L1.95806962,14.0513422 C1.38494575,14.0500391 0.912522604,13.5561637 0.908792948,12.956737 L0.908792948,5.0346625 L21.0912071,5.0359656 L21.0912071,12.956737 Z" id="Shape"></path>
                    </g>
                </g>
            </g>
        </g>
    </g>
</svg>