<?xml version="1.0" encoding="UTF-8"?>
<svg width="16px" height="21px" viewBox="0 0 16 21" version="1.1" xmlns="http://www.w3.org/2000/svg" xmlns:xlink="http://www.w3.org/1999/xlink">
    <!-- Generator: Sketch 49.3 (51167) - http://www.bohemiancoding.com/sketch -->
    <title>location</title>
    <desc>Created with Sketch.</desc>
    <defs></defs>
    <g id="Page-4" stroke="none" stroke-width="1" fill="none" fill-rule="evenodd">
        <g id="1---exact-price" transform="translate(-23.000000, -855.000000)" fill="#000000" fill-rule="nonzero">
            <g id="Group-7" transform="translate(20.000000, 821.000000)">
                <g id="location" transform="translate(3.000000, 34.000000)">
                    <path d="M15.9999138,8.04868771 C15.9486442,3.55963359 12.3704266,-0.0402326256 7.99996633,0.000339606929 C3.62950607,-0.0402326256 0.0512885059,3.55963359 1.88932798e-05,8.04868771 C-0.00373700676,9.78653666 0.552596286,11.4767956 1.58223072,12.8557839 L7.28441548,20.6165279 C7.31299955,20.6523904 7.34420065,20.6859652 7.3777482,20.7169611 L7.42663677,20.7626125 L7.45774767,20.7626125 C7.51726696,20.8038976 7.5814381,20.8376212 7.64885753,20.8630457 L7.71552376,20.8858714 C7.80321845,20.9404837 7.89945247,20.9790962 7.99996633,21 C8.08291477,20.9980899 8.16519436,20.9842602 8.24440917,20.9589137 L8.3110754,20.936088 C8.37849483,20.9106635 8.44266597,20.8769399 8.50218526,20.8356548 L8.53329616,20.8356548 L8.58218473,20.7900034 C8.61573228,20.7590075 8.64693338,20.7254327 8.67551745,20.6895702 L14.3777022,12.9288262 C15.4366498,11.5353993 16.0080752,9.81636633 15.9999138,8.04868771 Z M7.99994666,0.913594635 C11.8738348,0.864267359 15.0552792,4.04576767 15.1110074,8.02478035 C15.1127124,9.55732258 14.6196934,11.0471997 13.7091126,12.2612314 L7.99994666,20.0506667 L2.29586007,12.2664487 C1.38239741,11.0516744 0.887511293,9.55971895 0.888885905,8.02478035 C0.944614084,4.04576767 4.12605849,0.864267359 7.99994666,0.913594635 Z" id="Shape"></path>
                    <path d="M8,11 C9.65685425,11 11,9.65685425 11,8 C11,6.34314575 9.65685425,5 8,5 C6.34314575,5 5,6.34314575 5,8 C5,9.65685425 6.34314575,11 8,11 Z M8,5.85714286 C9.18346732,5.85714286 10.1428571,6.81653268 10.1428571,8 C10.1428571,9.18346732 9.18346732,10.1428571 8,10.1428571 C6.81653268,10.1428571 5.85714286,9.18346732 5.85714286,8 C5.85714286,6.81653268 6.81653268,5.85714286 8,5.85714286 Z" id="Shape"></path>
                </g>
            </g>
        </g>
    </g>
</svg>