<?xml version="1.0" encoding="UTF-8"?>
<svg width="17px" height="17px" viewBox="0 0 17 17" version="1.1" xmlns="http://www.w3.org/2000/svg" xmlns:xlink="http://www.w3.org/1999/xlink">
    <!-- Generator: Sketch 48.2 (47327) - http://www.bohemiancoding.com/sketch -->
    <title>Group 8</title>
    <desc>Created with Sketch.</desc>
    <defs></defs>
    <g id="blue-chip" stroke="none" strokeWidth="1" fill="none" fillRule="evenodd" transform="translate(-554.000000, -945.000000)">
        <g id="Group-8" transform="translate(555.000000, 946.000000)">
            <circle id="Oval-2" stroke="#666666" fill="#FFFFFF" cx="7.5" cy="7.5" r="7.5"></circle>
            <path d="M7.91666667,11.125 L7.91666667,9.94078947 L6.73245614,9.94078947 L6.73245614,11.125 L7.91666667,11.125 Z M7.79605263,9.04166667 L7.79605263,8.85526316 C7.79605263,7.12280702 10,6.82675439 10,5.06140351 C10,3.67982456 8.80482456,3 7.60964912,3 C6.32675439,3 5.01096491,3.82236842 5,5.46710526 L6.05263158,5.46710526 C6.05263158,4.29385965 6.80921053,3.82236842 7.54385965,3.82236842 C8.25657895,3.82236842 8.88157895,4.22807018 8.88157895,5.07236842 C8.88157895,5.52192982 8.62938596,5.96052632 8.16885965,6.35526316 C7.03947368,7.34210526 6.85307018,7.70394737 6.82017544,8.84429825 L6.82017544,9.04166667 L7.79605263,9.04166667 Z" id="?" fill="#666666"></path>
        </g>
    </g>
</svg>