<svg width="15px" height="15px" viewBox="0 0 15 15" version="1.1" xmlns="http://www.w3.org/2000/svg" xmlns:xlink="http://www.w3.org/1999/xlink">
    <!-- Generator: Sketch 43.2 (39069) - http://www.bohemiancoding.com/sketch -->
    <defs></defs>
    <g id="Submission" stroke="none" stroke-width="1" fill="none" fill-rule="evenodd">
        <g id="Artboard" transform="translate(-2206.000000, -1091.000000)" fill="#F4645C">
            <g id="Alert" transform="translate(2206.000000, 1091.000000)">
                <path d="M7.216,0 C3.232,0 0,3.231 0,7.215 C0,11.2 3.232,14.43 7.216,14.43 C11.199,14.43 14.43,11.2 14.43,7.215 C14.43,3.231 11.199,0 7.216,0 L7.216,0 Z M8.06,12.175 C7.797,12.422 7.491,12.544 7.142,12.543 C6.786,12.542 6.478,12.416 6.218,12.167 C5.956,11.916 5.827,11.62 5.828,11.275 C5.828,10.929 5.962,10.632 6.226,10.378 C6.487,10.128 6.796,10.003 7.151,10.004 C7.503,10.004 7.808,10.133 8.069,10.385 C8.327,10.64 8.458,10.94 8.456,11.287 C8.454,11.631 8.323,11.929 8.06,12.175 L8.06,12.175 Z M8.401,4.483 C8.335,4.79 8.248,5.15 8.146,5.563 C8.049,5.955 7.939,6.442 7.812,7.026 C7.689,7.61 7.556,8.333 7.415,9.192 L6.89,9.19 C6.757,8.32 6.629,7.596 6.509,7.017 C6.39,6.438 6.282,5.955 6.189,5.561 C6.105,5.203 6.024,4.85 5.954,4.506 C5.881,4.163 5.846,3.905 5.849,3.731 C5.849,3.381 5.982,3.083 6.241,2.837 C6.5,2.588 6.814,2.465 7.177,2.467 C7.536,2.469 7.849,2.594 8.112,2.844 C8.374,3.092 8.505,3.393 8.503,3.743 C8.503,3.929 8.468,4.176 8.401,4.483 L8.401,4.483 Z" id="Imported-Layers"></path>
            </g>
        </g>
    </g>
</svg>