<?xml version="1.0" encoding="iso-8859-1"?>
<!-- Generator: Adobe Illustrator 17.0.2, SVG Export Plug-In . SVG Version: 6.00 Build 0)  -->
<!DOCTYPE svg PUBLIC "-//W3C//DTD SVG 1.1//EN" "http://www.w3.org/Graphics/SVG/1.1/DTD/svg11.dtd">
<svg version="1.1" xmlns="http://www.w3.org/2000/svg" xmlns:xlink="http://www.w3.org/1999/xlink" x="0px" y="0px"
	 width="16px" height="16px" viewBox="0 0 16 16" style="enable-background:new 0 0 16 16;" xml:space="preserve">
<path d="M11.41,2.283c-1.129,0-2.189,0.439-2.978,1.228L7.992,3.94L7.576,3.518C6.778,2.722,5.718,2.283,4.591,2.283
	c-2.33,0-4.225,1.895-4.225,4.224c0,1.019,0.369,2.004,1.072,2.81L8,16l6.595-6.719c0.67-0.77,1.038-1.755,1.038-2.774
	C15.634,4.178,13.739,2.283,11.41,2.283z M13.883,6.52c0,0.587-0.21,1.166-0.57,1.583L8,13.512L2.726,8.145
	C2.333,7.694,2.117,7.117,2.117,6.52c0-1.363,1.11-2.472,2.474-2.472c0.66,0,1.279,0.256,1.744,0.72L8,6.421l1.664-1.649
	c0.465-0.466,1.085-0.723,1.746-0.723C12.773,4.049,13.883,5.157,13.883,6.52z"/>
</svg>
