<?xml version="1.0" encoding="UTF-8"?>
<svg width="40px" height="40px" viewBox="0 0 40 40" version="1.1" xmlns="http://www.w3.org/2000/svg" xmlns:xlink="http://www.w3.org/1999/xlink">
    <!-- Generator: Sketch 49.1 (51147) - http://www.bohemiancoding.com/sketch -->
    <title>Logo</title>
    <desc>Created with Sketch.</desc>
    <defs></defs>
    <g id="Symbols" stroke="none" stroke-width="1" fill="none" fill-rule="evenodd">
        <g id="primary-nav-1192" transform="translate(-10.000000, -10.000000)" fill="#000000">
            <g id="Logo" transform="translate(10.000000, 10.000000)">
                <path d="M0,39.9542222 L39.8448889,39.9542222 L39.8448889,0.111111111 L0,0.111111111 L0,39.9542222 Z M36.9782222,37.0873333 L30.9484444,37.0873333 L30.9484444,29.234 L28.08,29.234 L28.08,37.0873333 L2.86688889,37.0873333 L2.86688889,2.97777778 L36.9782222,2.97777778 L36.9782222,37.0873333 L36.9782222,37.0873333 Z" id="Fill-1"></path>
                <path d="M16.0677778,7.096 L12.9048889,7.096 L7.05044444,22.1715556 L10.0775556,22.1715556 L11.6593333,17.9435556 L17.3355556,17.9435556 L18.8933333,22.1715556 L21.9233333,22.1715556 L16.0677778,7.096 L16.0677778,7.096 Z M12.5417778,15.3908889 L14.4866667,10.1448889 L16.4077778,15.3908889 L12.5417778,15.3908889 L12.5417778,15.3908889 Z" id="Fill-2"></path>
            </g>
        </g>
    </g>
</svg>