<?xml version="1.0" encoding="iso-8859-1"?>
<!-- Generator: Adobe Illustrator 17.0.2, SVG Export Plug-In . SVG Version: 6.00 Build 0)  -->
<!DOCTYPE svg PUBLIC "-//W3C//DTD SVG 1.1//EN" "http://www.w3.org/Graphics/SVG/1.1/DTD/svg11.dtd">
<svg version="1.1" xmlns="http://www.w3.org/2000/svg" xmlns:xlink="http://www.w3.org/1999/xlink" x="0px" y="0px"
	 width="32px" height="32px" viewBox="0 0 32 32" style="enable-background:new 0 0 32 32;" xml:space="preserve">
<g>
	<path d="M16,5.999c-5.524,0-10,4.478-10,10c0,4.096,2.461,7.614,5.985,9.161c-0.028-0.699-0.005-1.538,0.172-2.297
		c0.194-0.812,1.286-5.45,1.286-5.45s-0.319-0.638-0.319-1.581c0-1.483,0.86-2.588,1.932-2.588c0.909,0,1.35,0.682,1.35,1.501
		c0,0.915-0.584,2.282-0.886,3.546c-0.248,1.063,0.536,1.927,1.58,1.927c1.893,0,3.172-2.434,3.172-5.317
		c0-2.192-1.479-3.832-4.161-3.832c-3.034,0-4.925,2.262-4.925,4.789c0,0.871,0.258,1.485,0.659,1.961
		c0.187,0.218,0.213,0.307,0.144,0.556c-0.049,0.185-0.157,0.628-0.204,0.803c-0.066,0.253-0.271,0.345-0.5,0.251
		c-1.398-0.571-2.049-2.101-2.049-3.82c0-2.84,2.396-6.248,7.146-6.248c3.816,0,6.329,2.763,6.329,5.731
		c0,3.921-2.179,6.852-5.393,6.852c-1.079,0-2.096-0.584-2.445-1.247c0,0-0.577,2.303-0.703,2.75
		c-0.213,0.77-0.626,1.541-1.005,2.142c0.898,0.266,1.849,0.411,2.834,0.411c5.523,0,10-4.479,10-10.002
		C26,10.477,21.523,5.999,16,5.999z"/>
</g>
</svg>
