<?xml version="1.0" encoding="utf-8"?>
<!-- Generator: Adobe Illustrator 16.0.0, SVG Export Plug-In . SVG Version: 6.00 Build 0)  -->
<!DOCTYPE svg PUBLIC "-//W3C//DTD SVG 1.1//EN" "http://www.w3.org/Graphics/SVG/1.1/DTD/svg11.dtd">
<svg version="1.1" id="Layer_1" xmlns="http://www.w3.org/2000/svg" xmlns:xlink="http://www.w3.org/1999/xlink" x="0px" y="0px"
	 width="612px" height="792px" viewBox="0 0 612 792" enable-background="new 0 0 612 792" xml:space="preserve">
<g>
	<g>
		<g>
			<path fill="#FFFFFF" d="M306,666C154.8,666,36,543.6,36,396c0-147.6,118.8-270,270-270s270,118.8,270,270S453.6,666,306,666z"/>
		</g>
		<g>
			<path fill="#231F20" d="M306,144c140.4,0,252,111.6,252,252c0,140.4-111.6,252-252,252C165.6,648,54,536.4,54,396
				C54,255.6,165.6,144,306,144 M306,108C147.6,108,18,237.6,18,396c0,158.4,129.6,288,288,288c158.4,0,288-129.6,288-288
				C594,237.6,464.4,108,306,108L306,108z"/>
		</g>
	</g>
	<g>
		<path fill="none" stroke="#231F20" stroke-width="2" d="M320.4,439.2"/>
	</g>
	<g>
		<path fill="none" stroke="#231F20" stroke-width="2" d="M190.8,572.4"/>
	</g>
	<g>
		<polygon fill="#231F20" points="277.2,543.6 226.8,493.2 334.8,385.2 226.8,277.2 277.2,223.2 435.6,385.2 		"/>
	</g>
</g>
</svg>
