<?xml version="1.0" encoding="utf-8"?>
<!-- Generator: Adobe Illustrator 18.1.1, SVG Export Plug-In . SVG Version: 6.00 Build 0)  -->
<svg version="1.1" id="Layer_1" xmlns="http://www.w3.org/2000/svg" xmlns:xlink="http://www.w3.org/1999/xlink" x="0px" y="0px"
	 viewBox="0 0 17 17" enable-background="new 0 0 17 17" xml:space="preserve">
<g>
	<g>
		<g>
			<path fill="#FFFFFF" d="M8.5,16C4.3,16,1,12.6,1,8.5S4.3,1,8.5,1S16,4.3,16,8.5S12.6,16,8.5,16z"/>
		</g>
		<g>
			<path fill="#999999" d="M8.5,1.5c3.9,0,7,3.1,7,7s-3.1,7-7,7s-7-3.1-7-7S4.6,1.5,8.5,1.5 M8.5,0.5c-4.4,0-8,3.6-8,8s3.6,8,8,8
				s8-3.6,8-8S12.9,0.5,8.5,0.5L8.5,0.5z"/>
		</g>
	</g>
	<g>
		<path fill="none" stroke="#231F20" stroke-width="2" d="M8.9,9.7"/>
	</g>
	<g>
		<path fill="none" stroke="#231F20" stroke-width="2" d="M5.3,13.4"/>
	</g>
	<g>
		<polygon fill="#231F20" points="7.7,12.6 6.3,11.2 9.3,8.2 6.3,5.2 7.7,3.7 12.1,8.2 		"/>
	</g>
</g>
</svg>
