<?xml version="1.0" encoding="utf-8"?>
<!-- Generator: Adobe Illustrator 21.0.2, SVG Export Plug-In . SVG Version: 6.00 Build 0)  -->
<svg version="1.1" xmlns="http://www.w3.org/2000/svg" xmlns:xlink="http://www.w3.org/1999/xlink" x="0px" y="0px"
	 viewBox="0 0 757 149.5" style="enable-background:new 0 0 757 149.5;" xml:space="preserve">
<style type="text/css">
	.st0{fill:#000000;}
</style>
<g id="_x30_2_x2F_01_x2F_2017">
	<g id="Desktop-Thank-You-Copy" transform="translate(-30.000000, -40.000000)">
		<g id="Artsy-Logo-Black" transform="translate(30.000000, 40.000000)">
			<path id="Fill-1" class="st0" d="M21.4,20.8h348.1v108H222.1v-17.9H214v17.8H21.5V20.8H21.4z M13,137.2h365V12.3H13V137.2z"/>
			<path id="Fill-2" class="st0" d="M87.2,52.4h-9.4L61.5,94h9.4l4.4-11.6H90L94.1,94h9.4L87.2,52.4L87.2,52.4z M77.5,74.9l4.7-13.1
				l4.7,13.1H77.5L77.5,74.9z"/>
			<polygon id="Fill-3" class="st0" points="168.2,60.9 183,60.9 183,94 191.7,94 191.7,60.9 206.4,60.9 206.4,52.4 168.2,52.4
				"/>
			<polyline id="Fill-4" class="st0" points="318.2,52.4 307.6,70.2 297.2,52.4 286.9,52.4 303.2,78.7 303.2,94 312.2,94
				312.2,78.7 328.5,52.4 318.2,52.4 			"/>
			<path id="Fill-5" class="st0" d="M269.4,72.1c-2.8-1.9-6.6-2.8-9.7-3.8c-0.6-0.3-1.3-0.3-1.9-0.6h-0.3c-2.8-0.6-6.3-1.6-6.3-4.7
				c0-3.4,4.1-4.4,6.3-4.4c2.8,0,5.9,0.9,6.9,4.7l0,0h8.5V63c-0.3-7.8-5.6-12.2-14.7-12.2c-6.9,0-14.7,3.1-14.7,12.2
				c0,9.4,8.5,11.3,15.7,13.1c0.6,0.3,1.3,0.3,1.9,0.6c3.8,0.9,5.6,2.8,5.6,5c0,5.3-6.9,5.6-8.1,5.6c-4.7,0-7.5-1.9-8.1-5.6l0,0H242
				V82c0,3.4,0.3,5.3,2.5,7.8c4.1,4.7,10.3,5.3,14.1,5.3c8.1,0,16.6-4.1,16.6-13.1C274.1,78.1,272.2,74.3,269.4,72.1"/>
			<path id="Fill-6" class="st0" d="M148.5,76.5c3.1-2.2,5.3-6.6,5.3-10.6c0-4.7-2.5-9.1-6.3-11.3c-3.1-1.9-6.6-1.9-9.7-1.9H119
				v41.6h8.8V73.7l16.6,20.7H155L142.6,79C144.8,78.4,146.6,78.1,148.5,76.5 M127.6,71.8V60.5h10c1.9,0,3.8,0,5,1.3
				c1.3,0.9,2.2,2.8,2.2,4.7c0,3.8-2.8,5.6-8.1,5.6h-9.1"/>
		</g>
	</g>
</g>
<g>
	<path class="st0" d="M445.4,65.6c0,1.9-0.3,3.7-0.9,5.3c-0.6,1.7-1.6,3.1-3.1,4.4c-0.9,0.8-1.8,1.4-2.7,1.9s-1.9,0.8-2.8,1
		c-1,0.2-2,0.3-3,0.4c-1,0.1-2.1,0.1-3.3,0.1h-3.3v16.1h-7.8V52.5h11.1c1.1,0,2.2,0,3.3,0.1c1,0.1,2.1,0.2,3,0.4
		c1,0.2,1.9,0.5,2.8,1s1.8,1.1,2.7,1.9c1.4,1.3,2.5,2.7,3.1,4.4C445.1,62,445.4,63.7,445.4,65.6z M437.6,65.6c0-1.3-0.3-2.3-0.8-3.1
		c-0.5-0.8-1.2-1.3-2-1.7c-0.8-0.4-1.7-0.7-2.7-0.8c-1-0.1-2-0.2-3-0.2h-2.8v11.5h2.5c1,0,2.1-0.1,3.1-0.2s2-0.4,2.8-0.8
		c0.9-0.4,1.5-1,2.1-1.7C437.3,67.9,437.6,66.9,437.6,65.6z"/>
	<path class="st0" d="M486.8,94.7l-11.2-16.1h-0.1v16.1h-7.8V52.5h12.9c1.9,0,3.7,0.2,5.4,0.5c1.7,0.3,3.4,1.1,4.8,2.3
		c1.6,1.3,2.8,2.8,3.7,4.5c0.9,1.8,1.3,3.7,1.3,5.7c0,1.8-0.4,3.6-1.1,5.5c-0.7,1.8-1.7,3.4-3,4.6c-1.1,1-2.2,1.8-3.2,2.3
		c-1.1,0.5-2.3,0.9-3.8,1.2l11.5,15.6H486.8z M488.1,66.2c0-1.1-0.2-2-0.6-2.8c-0.4-0.8-1-1.5-1.7-2s-1.5-0.9-2.4-1.2
		c-0.9-0.3-1.9-0.4-2.9-0.4h-5v12.9h5c1,0,2-0.1,2.9-0.4c0.9-0.3,1.7-0.7,2.4-1.2c0.7-0.5,1.2-1.2,1.6-2
		C487.9,68.3,488.1,67.3,488.1,66.2z"/>
	<path class="st0" d="M519.1,94.7V52.5h7.8v42.2H519.1z"/>
	<path class="st0" d="M588.7,94.7V63.1h-0.2l-10.8,31.6h-6.6l-10.8-31.6h-0.1v31.6h-7.8V52.5h10.8l11.2,31.9h0.1l11.1-31.9h10.8
		v42.2C596.4,94.7,588.7,94.7,588.7,94.7z"/>
	<path class="st0" d="M621.4,94.7V52.5h22.7v7.3h-14.9v10.3h14.2v7.3h-14.2v10h14.9v7.3H621.4z"/>
	<path class="st0" d="M688.2,94.7L677,78.6h-0.1v16.1h-7.8V52.5H682c1.9,0,3.7,0.2,5.4,0.5c1.7,0.3,3.4,1.1,4.8,2.3
		c1.6,1.3,2.8,2.8,3.7,4.5c0.9,1.8,1.3,3.7,1.3,5.7c0,1.8-0.4,3.6-1.1,5.5c-0.7,1.8-1.7,3.4-3,4.6c-1.1,1-2.2,1.8-3.2,2.3
		c-1.1,0.5-2.3,0.9-3.8,1.2l11.5,15.6H688.2z M689.4,66.2c0-1.1-0.2-2-0.6-2.8c-0.4-0.8-1-1.5-1.7-2c-0.7-0.5-1.5-0.9-2.4-1.2
		c-0.9-0.3-1.9-0.4-2.9-0.4h-5v12.9h5c1,0,2-0.1,2.9-0.4c0.9-0.3,1.7-0.7,2.4-1.2c0.7-0.5,1.2-1.2,1.6-2
		C689.2,68.3,689.4,67.3,689.4,66.2z"/>
</g>
</svg>
