<?xml version="1.0" encoding="utf-8"?>
<!-- Generator: Adobe Illustrator 19.0.0, SVG Export Plug-In . SVG Version: 6.00 Build 0)  -->
<!DOCTYPE svg PUBLIC "-//W3C//DTD SVG 1.1//EN" "http://www.w3.org/Graphics/SVG/1.1/DTD/svg11.dtd">
<svg version="1.1" id="Layer_1" xmlns="http://www.w3.org/2000/svg" xmlns:xlink="http://www.w3.org/1999/xlink" x="0px" y="0px"
	 viewBox="0 0 40 51" enable-background="new 0 0 40 51" xml:space="preserve" fill="#FFF">
	<path id="XMLID_14_" fill-rule="evenodd" clip-rule="evenodd" d="M20.5,5.3C14,5.3,8.8,10.5,8.8,16.8
		c0,0-0.6,18.1-4.1,18.1v6.2h31.7V35c-4.1-0.4-4.1-18.1-4.1-18.1C32.3,10.5,27,5.3,20.5,5.3 M20.5,9.6c4.1,0,7.3,3.2,7.3,7.2
		c0,0.2,0,4.7,0.5,9.4c0.3,2.8,0.9,7.7,3.2,10.6H9.3c2.1-2.8,2.7-7.5,3.1-10.4c0.6-4.7,0.8-9.3,0.8-9.5l0-0.1v-0.1
		C13.2,12.9,16.5,9.6,20.5,9.6"/>
	<path id="XMLID_11_" fill-rule="evenodd" clip-rule="evenodd" d="M24.8,41.2c0,2.3-1.9,4.2-4.3,4.2
		c-2.3,0-4.3-1.9-4.3-4.2c0-2.3,1.9-4.2,4.3-4.2C22.9,37,24.8,38.9,24.8,41.2"/>
</svg>
