<?xml version="1.0" encoding="iso-8859-1"?>
<!-- Generator: Adobe Illustrator 17.0.2, SVG Export Plug-In . SVG Version: 6.00 Build 0)  -->
<!DOCTYPE svg PUBLIC "-//W3C//DTD SVG 1.1//EN" "http://www.w3.org/Graphics/SVG/1.1/DTD/svg11.dtd">
<svg version="1.1" id="Layer_1" xmlns="http://www.w3.org/2000/svg" xmlns:xlink="http://www.w3.org/1999/xlink" x="0px" y="0px"
	 width="32px" height="32px" viewBox="0 0 32 32" style="enable-background:new 0 0 32 32;" xml:space="preserve">
<path style="fill-rule:evenodd;clip-rule:evenodd;" d="M16.001,8.481c-4.153,0-7.52,3.367-7.52,7.519c0,4.153,3.367,7.52,7.52,7.52
	c4.152,0,7.519-3.367,7.519-7.52C23.519,11.847,20.153,8.481,16.001,8.481z M14.269,21.177c-0.74,0-1.183-0.407-1.183-1.087
	c0-0.66,0.36-1.67,0.663-2.4l1.102-2.773c0.031-0.082,0.024-0.127,0.02-0.134c-0.214,0.011-0.616,0.486-0.883,0.801
	c-0.308,0.362-0.493,0.582-0.712,0.582c-0.224,0-0.427-0.203-0.427-0.426c0-0.294,0.348-0.698,0.909-1.253l0.055-0.054
	c0.54-0.514,1.411-1.12,2.521-1.12c0.468,0,0.843,0.168,1.057,0.476c0.276,0.398,0.272,0.99-0.014,1.761l-1.174,3.167
	c-0.086,0.212-0.216,0.532-0.216,0.712c0.149,0,0.62-0.529,0.846-0.784c0.352-0.396,0.502-0.556,0.683-0.556
	c0.194,0,0.411,0.188,0.411,0.458C17.927,19.169,15.94,21.177,14.269,21.177z M16.981,13.186c-0.773,0-1.293-0.52-1.293-1.293
	c0-0.803,0.692-1.482,1.513-1.482c0.771,0,1.309,0.531,1.309,1.293C18.51,12.534,17.839,13.186,16.981,13.186z"/>
</svg>
