<?xml version="1.0" encoding="utf-8"?>
<!-- Generator: Adobe Illustrator 17.0.2, SVG Export Plug-In . SVG Version: 6.00 Build 0)  -->
<!DOCTYPE svg PUBLIC "-//W3C//DTD SVG 1.1//EN" "http://www.w3.org/Graphics/SVG/1.1/DTD/svg11.dtd">
<svg version="1.1" id="Layer_1" xmlns="http://www.w3.org/2000/svg" xmlns:xlink="http://www.w3.org/1999/xlink" x="0px" y="0px"
	 width="32px" height="32px" viewBox="0 0 32 32" enable-background="new 0 0 32 32" xml:space="preserve">
<g>
	<path fill="none" d="M20.973,9.105c-0.518-0.001-1.005,0.201-1.371,0.567l-2.977,2.966c-0.368,0.367-0.57,0.853-0.571,1.371
		c0,0.179,0.032,0.352,0.078,0.52c0.002,0.001,0.005,0.003,0.008,0.004l1.272-1.269c0.368-0.366,0.963-0.365,1.329,0.002
		c0.367,0.368,0.366,0.963-0.002,1.329l-1.266,1.263c0.655,0.172,1.395,0.021,1.89-0.472l2.977-2.967
		c0.757-0.755,0.759-1.985,0.004-2.742C21.978,9.309,21.491,9.105,20.973,9.105z"/>
	<path fill="none" d="M15.842,17.484l-1.53,1.525c-0.184,0.183-0.424,0.274-0.665,0.274c-0.24,0-0.481-0.092-0.664-0.276
		c-0.366-0.367-0.365-0.962,0.002-1.329l1.529-1.524c-0.002-0.003-0.003-0.005-0.004-0.008c-0.168-0.047-0.34-0.08-0.519-0.08
		c-0.518-0.001-1.006,0.201-1.373,0.566L9.66,19.581c-0.757,0.755-0.759,1.987-0.004,2.746c0.365,0.365,0.851,0.567,1.369,0.568
		c0.518,0.001,1.005-0.199,1.373-0.565l2.959-2.95c0.513-0.512,0.67-1.239,0.49-1.892C15.845,17.487,15.844,17.486,15.842,17.484z"
		/>
	<path d="M23.866,8.161c-0.771-0.775-1.797-1.203-2.89-1.204c-1.092-0.002-2.12,0.423-2.892,1.194l-2.975,2.965
		c-0.754,0.751-1.176,1.745-1.2,2.805c-1.06,0.021-2.055,0.438-2.808,1.189L8.142,18.06c-1.595,1.591-1.599,4.185-0.008,5.783
		c0.771,0.772,1.796,1.198,2.887,1.2c1.091,0.001,2.118-0.421,2.892-1.191l2.961-2.951c0.776-0.775,1.172-1.787,1.194-2.805
		c1.061-0.02,2.057-0.438,2.812-1.189l2.977-2.967C25.452,12.348,25.456,9.755,23.866,8.161z M15.357,19.38l-2.959,2.95
		c-0.367,0.366-0.854,0.566-1.373,0.565c-0.518-0.001-1.004-0.203-1.369-0.568c-0.755-0.758-0.753-1.99,0.004-2.746l2.959-2.949
		c0.367-0.366,0.855-0.567,1.373-0.566c0.179,0,0.351,0.033,0.519,0.08c0.001,0.003,0.002,0.005,0.004,0.008l-1.529,1.524
		c-0.368,0.367-0.369,0.962-0.002,1.329c0.183,0.184,0.424,0.276,0.664,0.276c0.241,0,0.481-0.091,0.665-0.274l1.53-1.525
		c0.002,0.001,0.003,0.002,0.005,0.003C16.027,18.141,15.87,18.868,15.357,19.38z M22.34,12.419l-2.977,2.967
		c-0.495,0.493-1.234,0.645-1.89,0.472l1.266-1.263c0.368-0.366,0.369-0.961,0.002-1.329c-0.366-0.367-0.961-0.368-1.329-0.002
		l-1.272,1.269c-0.003-0.001-0.005-0.003-0.008-0.004c-0.046-0.168-0.078-0.341-0.078-0.52c0.001-0.518,0.204-1.004,0.571-1.371
		l2.977-2.966c0.366-0.366,0.853-0.568,1.371-0.567c0.518,0,1.005,0.204,1.371,0.572C23.099,10.434,23.097,11.664,22.34,12.419z"/>
</g>
</svg>
