<?xml version="1.0" encoding="UTF-8"?>
<svg width="96px" height="90px" viewBox="0 0 96 90" version="1.1" xmlns="http://www.w3.org/2000/svg" xmlns:xlink="http://www.w3.org/1999/xlink">
    <!-- Generator: Sketch 41.2 (35397) - http://www.bohemiancoding.com/sketch -->
    <title>Group 10</title>
    <desc>Created with Sketch.</desc>
    <defs></defs>
    <g id="Spec" stroke="none" stroke-width="1" fill="none" fill-rule="evenodd">
        <g id="checkout-copy-4" transform="translate(-401.000000, -97.000000)">
            <g id="Group-10" transform="translate(401.000000, 97.000000)">
                <g id="Group-6-Copy" transform="translate(73.500000, 69.214286) scale(-1, 1) translate(-73.500000, -69.214286) translate(51.000000, 48.214286)">
                    <rect id="Rectangle-2" fill="#E5E5E5" x="2.27373675e-13" y="0" width="44.8" height="34.2857143" rx="17.1428571"></rect>
                    <polygon id="Rectangle-3" fill="#E5E5E5" transform="translate(15.644444, 35.714286) scale(1, -1) translate(-15.644444, -35.714286) " points="9.95555556 30 21.3333333 41.4285714 9.95555556 41.4285714"></polygon>
                    <g id="Group-14" transform="translate(12.800000, 15.000000)" fill="#FFFFFF">
                        <ellipse id="Oval-2" cx="2.48888889" cy="2.5" rx="2.48888889" ry="2.5"></ellipse>
                        <ellipse id="Oval-2-Copy" cx="9.8245614" cy="2.5" rx="2.48888889" ry="2.5"></ellipse>
                        <ellipse id="Oval-2-Copy-2" cx="17.1602339" cy="2.5" rx="2.48888889" ry="2.5"></ellipse>
                    </g>
                </g>
                <g id="Group-6">
                    <rect id="Rectangle-2" fill="#E5E5E5" x="0" y="0" width="65.4222222" height="50.7142857" rx="25.3571429"></rect>
                    <polygon id="Rectangle-3" fill="#E5E5E5" transform="translate(22.755556, 52.142857) scale(1, -1) translate(-22.755556, -52.142857) " points="14.2222222 43.5714286 31.2888889 60.7142857 14.2222222 60.7142857"></polygon>
                    <path d="M37.6320003,22.1472092 C37.6320003,22.5861897 37.5737306,22.9885824 37.4571894,23.3543994 C37.3406482,23.7202165 37.1840484,24.0604212 36.9873851,24.3750239 C36.7907219,24.6896265 36.557643,24.9932501 36.2881416,25.2859038 C36.0186401,25.5785574 35.7309334,25.8638904 35.4250128,26.1419114 C35.1919304,26.3614016 34.9879864,26.5625979 34.8131746,26.7455065 C34.6383629,26.928415 34.4926886,27.118637 34.3761474,27.3161782 C34.2596062,27.5137194 34.1722016,27.7368644 34.113931,27.98562 C34.0556605,28.2343756 34.0265256,28.5270249 34.0265256,28.8635765 L34.0265256,29.6098396 L31.1202944,29.6098396 L31.1202944,28.9733211 C31.1202944,28.2270543 31.207699,27.5905422 31.3825108,27.0637657 C31.5573226,26.5369892 31.7794759,26.0833828 32.0489773,25.7029331 C32.3184788,25.3224834 32.6098274,24.9969111 32.9230318,24.7262065 C33.2362362,24.4555019 33.5275848,24.1921176 33.7970863,23.9360456 C34.0665878,23.6799737 34.2887411,23.4129313 34.4635528,23.1349103 C34.6383646,22.8568894 34.7257692,22.527659 34.7257692,22.1472092 C34.7257692,21.5033713 34.5436763,20.9948932 34.1794851,20.6217598 C33.8152939,20.2486264 33.3127176,20.0620625 32.6717411,20.0620625 C32.30755,20.0620625 32.0052758,20.1132762 31.7649096,20.2157049 C31.5245434,20.3181337 31.3278831,20.4644583 31.1749229,20.6546832 C31.0219626,20.844908 30.9054231,21.0717112 30.8253011,21.3350995 C30.745179,21.5984877 30.6832674,21.891137 30.6395645,22.213056 L27.7333333,22.213056 C27.8207392,21.1302375 28.1157297,20.1681532 28.6183135,19.326774 C29.1208973,18.4853948 29.8966129,17.8744895 30.9454835,17.4940397 C31.5281894,17.2599168 32.1327378,17.1428571 32.7591466,17.1428571 C33.4729613,17.1428571 34.1284956,17.2708912 34.7257692,17.5269631 C35.3230427,17.783035 35.8365446,18.1342141 36.2662902,18.5805109 C36.6960358,19.0268077 37.0310867,19.5572345 37.2714529,20.1718071 C37.511819,20.7863797 37.6320003,21.4448405 37.6320003,22.1472092 L37.6320003,22.1472092 Z M31.1202944,33.7142863 L31.1202944,30.7950809 L34.0265256,30.7950809 L34.0265256,33.7142863 L31.1202944,33.7142863 Z" id="?" fill="#FFFFFF"></path>
                </g>
            </g>
        </g>
    </g>
</svg>