<?xml version="1.0" encoding="iso-8859-1"?>
<!-- Generator: Adobe Illustrator 17.0.2, SVG Export Plug-In . SVG Version: 6.00 Build 0)  -->
<!DOCTYPE svg PUBLIC "-//W3C//DTD SVG 1.1//EN" "http://www.w3.org/Graphics/SVG/1.1/DTD/svg11.dtd">
<svg version="1.1" id="Layer_1" xmlns="http://www.w3.org/2000/svg" xmlns:xlink="http://www.w3.org/1999/xlink" x="0px" y="0px"
	 width="32px" height="32px" viewBox="0 0 32 32" style="enable-background:new 0 0 32 32;" xml:space="preserve">
<path d="M6,7v19h19V7H6z M19,15h-3v4c0,0.773,0,0.773,0,1.172c0,0.234,0.121,0.494,0.344,0.625c0.294,0.176,0.56,0.119,0.941,0.119
	c0.674,0,1.348-0.324,1.715-0.541v2.104c-0.317,0.103-0.788,0.337-1.249,0.445c-0.462,0.108-0.961,0.162-1.498,0.162
	c-0.608,0-1.147-0.077-1.616-0.231c-0.469-0.153-0.657-0.297-0.908-0.492s-0.464-0.456-0.621-0.8
	c-0.156-0.344-0.125-1.048-0.125-1.656L13,15h-2v-2c0.524-0.17,1.06-0.081,1.433-0.398c0.374-0.317,1.109-0.977,1.109-0.977
	C13.768,11.18,14,11.042,14,9h2v4h3V15z"/>
</svg>
