<?xml version="1.0" encoding="utf-8"?>
<!-- Generator: Adobe Illustrator 15.0.0, SVG Export Plug-In . SVG Version: 6.00 Build 0)  -->
<!DOCTYPE svg PUBLIC "-//W3C//DTD SVG 1.1//EN" "http://www.w3.org/Graphics/SVG/1.1/DTD/svg11.dtd">
<svg version="1.1" id="Layer_1" xmlns="http://www.w3.org/2000/svg" xmlns:xlink="http://www.w3.org/1999/xlink" x="0px" y="0px"
	 width="96.405px" height="33.044px" viewBox="0 0 96.405 33.044" enable-background="new 0 0 96.405 33.044" xml:space="preserve">
<path d="M2.384,2.385h91.637V30.66H55.526v-5.11h-2.384v5.11H2.384V2.385z M0,33.044h96.405V0H0V33.044z"/>
<path d="M19.624,10.546h-2.469l-4.294,11.045h2.469l1.126-3.062h3.881l1.112,3.062h2.47L19.624,10.546z M17.121,16.505l1.268-3.461
	l1.253,3.461H17.121z"/>
<polygon points="41.064,10.546 41.064,12.739 45.052,12.739 45.052,21.591 47.606,21.591 47.606,12.739 51.694,12.739
	51.694,10.546 "/>
<polygon points="80.724,10.546 77.929,15.256 75.15,10.546 72.447,10.546 76.774,17.537 76.774,21.591 79.1,21.591 79.1,17.537
	83.426,10.546 "/>
<path d="M67.729,15.774c-0.719-0.525-1.703-0.766-2.572-0.979c-0.181-0.044-0.357-0.087-0.528-0.132l-0.106-0.028
	c-0.709-0.177-1.678-0.422-1.678-1.267c0-0.904,1.053-1.145,1.675-1.145c0.705,0,1.591,0.211,1.808,1.219l0.007,0.034h2.19
	l-0.001-0.043c-0.074-2.039-1.504-3.208-3.922-3.208c-1.802,0-3.903,0.841-3.903,3.208c0,2.466,2.193,2.993,4.129,3.459
	c0.178,0.043,0.354,0.085,0.523,0.128c0.986,0.258,1.487,0.715,1.487,1.36c0,1.389-1.821,1.459-2.187,1.459
	c-1.279,0-1.975-0.478-2.188-1.5l-0.006-0.033h-2.225l0.003,0.042c0.016,0.876,0.122,1.409,0.686,2.072
	c1.069,1.246,2.764,1.433,3.68,1.433c2.111,0,4.384-1.097,4.384-3.506C68.985,17.324,68.504,16.338,67.729,15.774"/>
<path d="M35.718,16.894c0.844-0.617,1.368-1.706,1.368-2.845c0-1.231-0.634-2.374-1.654-2.981c-0.865-0.522-1.739-0.522-2.584-0.522
	h-4.982v11.045h2.341v-5.459l4.345,5.459h2.835l-3.308-4.052C34.672,17.436,35.165,17.297,35.718,16.894 M30.207,15.631v-3.003
	l2.63-0.001c0.523,0,0.986,0.022,1.36,0.292c0.353,0.258,0.563,0.71,0.563,1.21c0,0.996-0.711,1.501-2.114,1.501H30.207z"/>
</svg>
